# xmcd
#
# Track frame offsets: 
#        150
#        11182
#        26047
#        39215
#        52815
#        65670
#        79857
#        92452
#        106012
#        120057
#        132297
#
# Disc length: 1953 seconds
#
# Revision: 4
# Processed by: cddbd v1.5.2PL0 Copyright (c) Steve Scherf et al.
# Submitted via: ExactAudioCopyFreeDBPlugin 1.0
#
DISCID=7a079f0b
DTITLE=Various Artist - Blues Vol. 2
DYEAR=1987
DGENRE=Blues
TTITLE0=Chuck Berry - Thirty Days
TTITLE1=John Lee Hooker - Sugar Mama
TTITLE2=Howlin' Wolf - Evil
TTITLE3=Muddy Waters - Got My Mojo Working
TTITLE4=Bo Diddley - I'm A Man
TTITLE5=Little Walter - Blues With A Feeling
TTITLE6=Little Walter - Key To The Highway
TTITLE7=Jimmy Witherspoon - It Ain't No Secret
TTITLE8=Chuck Berry - Wee Wee Hours
TTITLE9=Buddy Guy - Ten Years Ago
TTITLE10=Otis Rush And The Turnabouts - So Many Roads
EXTD=
EXTT0=
EXTT1=
EXTT2=
EXTT3=
EXTT4=
EXTT5=
EXTT6=
EXTT7=
EXTT8=
EXTT9=
EXTT10=
PLAYORDER=
